<?xml version="1.0" standalone="no"?>
<!DOCTYPE svg PUBLIC "-//W3C//DTD SVG 20010904//EN"
 "http://www.w3.org/TR/2001/REC-SVG-20010904/DTD/svg10.dtd">
<svg version="1.0" xmlns="http://www.w3.org/2000/svg"
 width="512.000000pt" height="512.000000pt" viewBox="0 0 512.000000 512.000000"
 preserveAspectRatio="xMidYMid meet">
<metadata>
Created by potrace 1.11, written by Peter Selinger 2001-2013
</metadata>
<g transform="translate(0.000000,512.000000) scale(0.100000,-0.100000)"
fill="#000000" stroke="none">
<path d="M1823 5101 c-72 -24 -127 -65 -163 -119 -59 -90 -60 -96 -60 -657 l0
-512 -82 -17 c-629 -133 -1167 -596 -1392 -1199 -46 -123 -80 -251 -103 -387
-24 -144 -24 -436 0 -580 71 -422 248 -771 542 -1065 294 -294 643 -471 1065
-542 144 -24 436 -24 580 0 413 69 758 242 1048 525 l94 92 761 2 762 3 56 26
c71 33 125 87 158 158 l26 56 0 1995 0 1995 -26 56 c-33 71 -87 125 -158 158
l-56 26 -1500 2 c-1423 2 -1503 2 -1552 -16z m-122 -1915 c94 -20 164 -59 236
-132 188 -187 187 -481 -1 -670 -189 -189 -483 -189 -672 0 -188 189 -189 483
-1 670 121 122 271 167 438 132z m925 -322 c69 -33 104 -103 90 -180 -6 -27
-160 -226 -665 -857 -361 -452 -670 -830 -685 -840 -42 -28 -90 -32 -141 -13
-77 30 -116 99 -101 180 9 48 1318 1685 1367 1709 43 21 92 21 135 1z m1854
-144 l0 -160 -160 0 -160 0 0 160 0 160 160 0 160 0 0 -160z m0 -960 l0 -160
-160 0 -160 0 0 160 0 160 160 0 160 0 0 -160z m-2139 -174 c94 -20 164 -59
236 -132 144 -144 180 -354 93 -542 -40 -85 -137 -182 -222 -222 -189 -88
-398 -51 -544 94 -188 189 -189 483 -1 670 121 122 271 167 438 132z"/>
<path d="M1532 2864 c-107 -55 -121 -198 -26 -271 96 -73 238 -10 251 111 14
119 -120 214 -225 160z"/>
<path d="M2172 1264 c-107 -55 -121 -198 -26 -271 96 -73 238 -10 251 111 14
119 -120 214 -225 160z"/>
</g>
</svg>
