<?xml version="1.0" standalone="no"?>
<!DOCTYPE svg PUBLIC "-//W3C//DTD SVG 20010904//EN"
 "http://www.w3.org/TR/2001/REC-SVG-20010904/DTD/svg10.dtd">
<svg version="1.0" xmlns="http://www.w3.org/2000/svg"
 width="512.000000pt" height="512.000000pt" viewBox="0 0 512.000000 512.000000"
 preserveAspectRatio="xMidYMid meet">
<metadata>
Created by potrace 1.11, written by Peter Selinger 2001-2013
</metadata>
<g transform="translate(0.000000,512.000000) scale(0.100000,-0.100000)"
fill="#000000" stroke="none">
<path d="M2325 4949 c-473 -45 -941 -245 -1325 -567 -522 -437 -840 -1127
-840 -1822 0 -695 318 -1385 840 -1822 714 -599 1659 -742 2509 -381 636 270
1124 811 1340 1486 321 1006 -74 2124 -959 2714 -455 303 -1015 444 -1565 392z
m760 -1111 c70 -15 172 -70 228 -124 107 -102 157 -214 164 -364 9 -180 -41
-324 -151 -434 -289 -291 -778 -150 -872 251 -23 98 -15 268 15 346 70 179
237 314 418 337 63 8 120 5 198 -12z m759 -822 c155 -91 88 -326 -94 -326
l-52 0 -272 -266 c-149 -147 -275 -278 -279 -293 -23 -70 -52 -113 -92 -137
-103 -60 -238 -4 -262 109 -4 19 -65 83 -205 215 -197 184 -201 187 -252 193
-28 3 -60 11 -71 16 -17 9 -68 -25 -369 -248 -193 -143 -351 -259 -353 -259
-2 0 -3 55 -3 123 l0 122 313 231 c251 185 317 239 335 272 37 66 74 87 157
87 57 0 76 -4 103 -23 41 -30 72 -90 72 -139 0 -36 8 -45 182 -208 l181 -170
75 2 75 2 273 266 c245 238 274 270 274 298 0 18 11 50 24 71 50 84 157 111
240 62z m-1342 -1617 c85 -94 93 -122 36 -127 l-38 -3 0 -61 c0 -80 -15 -98
-83 -98 -72 0 -87 17 -87 96 l0 63 -37 3 c-31 2 -38 7 -38 24 0 27 134 183
157 184 9 0 50 -36 90 -81z m272 -35 c11 -10 16 -34 16 -75 0 -56 1 -59 24
-59 38 0 56 -10 56 -32 0 -23 -145 -188 -165 -188 -17 0 -165 164 -165 184 0
18 30 36 59 36 19 0 21 6 21 59 0 76 14 91 85 91 35 0 59 -5 69 -16z"/>
<path d="M2720 3641 c-67 -35 -92 -120 -56 -189 64 -125 256 -74 256 68 0 107
-107 171 -200 121z m105 -75 c11 -8 18 -26 18 -46 0 -38 -23 -60 -64 -60 -29
0 -59 31 -59 60 0 49 63 77 105 46z"/>
<path d="M3114 3653 c-15 -11 -365 -591 -372 -616 -6 -24 21 -47 46 -40 9 2
98 138 197 301 184 305 206 354 160 360 -11 1 -25 -1 -31 -5z"/>
<path d="M3073 3250 c-100 -51 -105 -182 -10 -240 91 -56 207 9 207 115 0 106
-104 172 -197 125z m106 -87 c48 -60 -32 -130 -89 -78 -26 23 -25 60 0 85 28
28 64 25 89 -7z"/>
</g>
</svg>
